<svg width="24" height="25" viewBox="0 0 24 25" fill="none" xmlns="http://www.w3.org/2000/svg">
<g clip-path="url(#clip0_1082_1053)">
<path d="M15.58 12.5C15.58 14.48 13.98 16.08 12 16.08C10.02 16.08 8.41998 14.48 8.41998 12.5C8.41998 10.52 10.02 8.92 12 8.92C13.98 8.92 15.58 10.52 15.58 12.5Z" stroke="#A7AEC1" stroke-width="1.5" stroke-linecap="round" stroke-linejoin="round"/>
<path d="M12 20.77C15.53 20.77 18.82 18.69 21.11 15.09C22.01 13.68 22.01 11.31 21.11 9.9C18.82 6.3 15.53 4.22 12 4.22C8.47003 4.22 5.18003 6.3 2.89003 9.9C1.99003 11.31 1.99003 13.68 2.89003 15.09C5.18003 18.69 8.47003 20.77 12 20.77Z" stroke="#A7AEC1" stroke-width="1.5" stroke-linecap="round" stroke-linejoin="round"/>
</g>
<defs>
<clipPath id="clip0_1082_1053">
<rect width="24" height="24" fill="white" transform="translate(0 0.5)"/>
</clipPath>
</defs>
</svg>
